<mxfile host="app.diagrams.net" modified="2021-03-24T11:48:12.755Z" agent="5.0 (Windows NT 10.0; WOW64) AppleWebKit/537.36 (KHTML, like Gecko) Chrome/78.0.3904.108 Safari/537.36" etag="HojRa75wu__CGxK8cnFa" version="14.4.9" type="github">
  <diagram id="3x-6C-0-K-5pdHILHHV8" name="Page-1">
    <mxGraphModel dx="1424" dy="752" grid="0" gridSize="10" guides="1" tooltips="1" connect="1" arrows="1" fold="1" page="1" pageScale="1" pageWidth="3300" pageHeight="4681" math="0" shadow="0">
      <root>
        <mxCell id="0" />
        <mxCell id="1" parent="0" />
        <mxCell id="z2U0kG40jGPZimGbsGk0-116" value="员工" style="rounded=0;whiteSpace=wrap;html=1;fontSize=18;fontStyle=0" parent="1" vertex="1">
          <mxGeometry x="686" y="64" width="120" height="60" as="geometry" />
        </mxCell>
        <mxCell id="z2U0kG40jGPZimGbsGk0-119" value="" style="ellipse;whiteSpace=wrap;html=1;fontSize=18;fontStyle=0" parent="1" vertex="1">
          <mxGeometry x="552" y="180" width="120" height="50" as="geometry" />
        </mxCell>
        <mxCell id="z2U0kG40jGPZimGbsGk0-120" value="姓名" style="ellipse;whiteSpace=wrap;html=1;fontSize=18;fontStyle=0" parent="1" vertex="1">
          <mxGeometry x="690" y="189" width="120" height="50" as="geometry" />
        </mxCell>
        <mxCell id="z2U0kG40jGPZimGbsGk0-121" value="登录密码" style="ellipse;whiteSpace=wrap;html=1;fontSize=18;fontStyle=0" parent="1" vertex="1">
          <mxGeometry x="966" y="135" width="120" height="50" as="geometry" />
        </mxCell>
        <mxCell id="z2U0kG40jGPZimGbsGk0-122" value="&lt;u style=&quot;font-size: 18px;&quot;&gt;员工编号&lt;/u&gt;" style="ellipse;whiteSpace=wrap;html=1;fontSize=18;fontStyle=1" parent="1" vertex="1">
          <mxGeometry x="423" y="151.5" width="120" height="50" as="geometry" />
        </mxCell>
        <mxCell id="z2U0kG40jGPZimGbsGk0-123" value="电话号码" style="ellipse;whiteSpace=wrap;html=1;fontSize=18;fontStyle=0" parent="1" vertex="1">
          <mxGeometry x="562" y="185" width="100" height="40" as="geometry" />
        </mxCell>
        <mxCell id="z2U0kG40jGPZimGbsGk0-124" value="" style="endArrow=none;html=1;entryX=0.442;entryY=0.04;entryDx=0;entryDy=0;fontSize=18;fontStyle=0;entryPerimeter=0;" parent="1" source="z2U0kG40jGPZimGbsGk0-116" target="z2U0kG40jGPZimGbsGk0-122" edge="1">
          <mxGeometry width="50" height="50" relative="1" as="geometry">
            <mxPoint x="686" y="74" as="sourcePoint" />
            <mxPoint x="736" y="24" as="targetPoint" />
          </mxGeometry>
        </mxCell>
        <mxCell id="z2U0kG40jGPZimGbsGk0-125" value="" style="endArrow=none;html=1;entryX=0.5;entryY=0;entryDx=0;entryDy=0;fontSize=18;fontStyle=0;exitX=0;exitY=1;exitDx=0;exitDy=0;" parent="1" target="z2U0kG40jGPZimGbsGk0-119" edge="1" source="z2U0kG40jGPZimGbsGk0-116">
          <mxGeometry width="50" height="50" relative="1" as="geometry">
            <mxPoint x="726" y="125" as="sourcePoint" />
            <mxPoint x="746" y="204" as="targetPoint" />
          </mxGeometry>
        </mxCell>
        <mxCell id="z2U0kG40jGPZimGbsGk0-126" value="" style="endArrow=none;html=1;entryX=0.45;entryY=0.02;entryDx=0;entryDy=0;exitX=0.5;exitY=1;exitDx=0;exitDy=0;fontSize=18;fontStyle=0;entryPerimeter=0;" parent="1" source="z2U0kG40jGPZimGbsGk0-116" target="z2U0kG40jGPZimGbsGk0-120" edge="1">
          <mxGeometry width="50" height="50" relative="1" as="geometry">
            <mxPoint x="606" y="294" as="sourcePoint" />
            <mxPoint x="656" y="244" as="targetPoint" />
          </mxGeometry>
        </mxCell>
        <mxCell id="z2U0kG40jGPZimGbsGk0-127" value="" style="endArrow=none;html=1;fontSize=18;fontStyle=0;exitX=1;exitY=0.75;exitDx=0;exitDy=0;" parent="1" source="z2U0kG40jGPZimGbsGk0-116" target="z2U0kG40jGPZimGbsGk0-121" edge="1">
          <mxGeometry width="50" height="50" relative="1" as="geometry">
            <mxPoint x="806" y="64" as="sourcePoint" />
            <mxPoint x="856" y="14" as="targetPoint" />
          </mxGeometry>
        </mxCell>
        <mxCell id="z2U0kG40jGPZimGbsGk0-129" value="仓库" style="rounded=0;whiteSpace=wrap;html=1;fontSize=18;fontStyle=0" parent="1" vertex="1">
          <mxGeometry x="2090" y="700" width="120" height="60" as="geometry" />
        </mxCell>
        <mxCell id="z2U0kG40jGPZimGbsGk0-130" value="入库" style="rhombus;whiteSpace=wrap;html=1;fontSize=18;fontStyle=0" parent="1" vertex="1">
          <mxGeometry x="1090" y="710" width="130" height="60" as="geometry" />
        </mxCell>
        <mxCell id="z2U0kG40jGPZimGbsGk0-131" value="出库" style="rhombus;whiteSpace=wrap;html=1;fontSize=18;fontStyle=0" parent="1" vertex="1">
          <mxGeometry x="408" y="386" width="130" height="60" as="geometry" />
        </mxCell>
        <mxCell id="z2U0kG40jGPZimGbsGk0-132" value="物料编号" style="ellipse;whiteSpace=wrap;html=1;fontStyle=5;fontSize=18;" parent="1" vertex="1">
          <mxGeometry x="1820" y="765" width="120" height="50" as="geometry" />
        </mxCell>
        <mxCell id="z2U0kG40jGPZimGbsGk0-133" value="库存数量" style="ellipse;whiteSpace=wrap;html=1;fontSize=18;fontStyle=0" parent="1" vertex="1">
          <mxGeometry x="2320" y="844" width="120" height="50" as="geometry" />
        </mxCell>
        <mxCell id="z2U0kG40jGPZimGbsGk0-134" value="物料规格" style="ellipse;whiteSpace=wrap;html=1;fontSize=18;fontStyle=0" parent="1" vertex="1">
          <mxGeometry x="2174" y="873" width="120" height="50" as="geometry" />
        </mxCell>
        <mxCell id="z2U0kG40jGPZimGbsGk0-135" value="最新更新日期" style="ellipse;whiteSpace=wrap;html=1;fontSize=18;fontStyle=0" parent="1" vertex="1">
          <mxGeometry x="2407" y="765" width="120" height="50" as="geometry" />
        </mxCell>
        <mxCell id="z2U0kG40jGPZimGbsGk0-136" value="物料名称" style="ellipse;whiteSpace=wrap;html=1;fontSize=18;fontStyle=0" parent="1" vertex="1">
          <mxGeometry x="1892" y="840" width="120" height="50" as="geometry" />
        </mxCell>
        <mxCell id="z2U0kG40jGPZimGbsGk0-138" value="" style="endArrow=none;html=1;exitX=0;exitY=1;exitDx=0;exitDy=0;fontSize=18;fontStyle=0" parent="1" source="z2U0kG40jGPZimGbsGk0-129" target="z2U0kG40jGPZimGbsGk0-136" edge="1">
          <mxGeometry width="50" height="50" relative="1" as="geometry">
            <mxPoint x="2130" y="690" as="sourcePoint" />
            <mxPoint x="2180" y="640" as="targetPoint" />
          </mxGeometry>
        </mxCell>
        <mxCell id="z2U0kG40jGPZimGbsGk0-139" value="" style="endArrow=none;html=1;entryX=0.65;entryY=0.04;entryDx=0;entryDy=0;entryPerimeter=0;fontSize=18;fontStyle=0" parent="1" source="z2U0kG40jGPZimGbsGk0-129" target="z2U0kG40jGPZimGbsGk0-132" edge="1">
          <mxGeometry width="50" height="50" relative="1" as="geometry">
            <mxPoint x="2220" y="720" as="sourcePoint" />
            <mxPoint x="2263" y="650" as="targetPoint" />
          </mxGeometry>
        </mxCell>
        <mxCell id="z2U0kG40jGPZimGbsGk0-140" value="" style="endArrow=none;html=1;fontSize=18;fontStyle=0;exitX=1;exitY=1;exitDx=0;exitDy=0;" parent="1" source="z2U0kG40jGPZimGbsGk0-129" target="z2U0kG40jGPZimGbsGk0-133" edge="1">
          <mxGeometry width="50" height="50" relative="1" as="geometry">
            <mxPoint x="2250" y="770" as="sourcePoint" />
            <mxPoint x="2300" y="720" as="targetPoint" />
          </mxGeometry>
        </mxCell>
        <mxCell id="z2U0kG40jGPZimGbsGk0-142" value="" style="endArrow=none;html=1;entryX=0.5;entryY=0;entryDx=0;entryDy=0;fontSize=18;fontStyle=0" parent="1" source="z2U0kG40jGPZimGbsGk0-129" target="z2U0kG40jGPZimGbsGk0-134" edge="1">
          <mxGeometry width="50" height="50" relative="1" as="geometry">
            <mxPoint x="2180" y="860" as="sourcePoint" />
            <mxPoint x="2230" y="810" as="targetPoint" />
          </mxGeometry>
        </mxCell>
        <mxCell id="z2U0kG40jGPZimGbsGk0-143" value="" style="endArrow=none;html=1;entryX=0.308;entryY=0.02;entryDx=0;entryDy=0;entryPerimeter=0;fontSize=18;fontStyle=0" parent="1" source="z2U0kG40jGPZimGbsGk0-129" target="z2U0kG40jGPZimGbsGk0-135" edge="1">
          <mxGeometry width="50" height="50" relative="1" as="geometry">
            <mxPoint x="2170" y="890" as="sourcePoint" />
            <mxPoint x="2220" y="840" as="targetPoint" />
          </mxGeometry>
        </mxCell>
        <mxCell id="z2U0kG40jGPZimGbsGk0-149" value="入库数量" style="ellipse;whiteSpace=wrap;html=1;fontSize=18;fontStyle=0" parent="1" vertex="1">
          <mxGeometry x="999" y="869" width="120" height="50" as="geometry" />
        </mxCell>
        <mxCell id="z2U0kG40jGPZimGbsGk0-150" value="操作人" style="ellipse;whiteSpace=wrap;html=1;fontSize=18;fontStyle=0" parent="1" vertex="1">
          <mxGeometry x="1351" y="840" width="120" height="50" as="geometry" />
        </mxCell>
        <mxCell id="z2U0kG40jGPZimGbsGk0-151" value="入库编号" style="ellipse;whiteSpace=wrap;html=1;fontStyle=5;fontSize=18;" parent="1" vertex="1">
          <mxGeometry x="837" y="840" width="120" height="50" as="geometry" />
        </mxCell>
        <mxCell id="z2U0kG40jGPZimGbsGk0-153" value="入库日期" style="ellipse;whiteSpace=wrap;html=1;fontSize=18;fontStyle=0" parent="1" vertex="1">
          <mxGeometry x="1171" y="873" width="120" height="50" as="geometry" />
        </mxCell>
        <mxCell id="z2U0kG40jGPZimGbsGk0-155" value="" style="endArrow=none;html=1;entryX=0;entryY=0.5;entryDx=0;entryDy=0;exitX=0.743;exitY=0.084;exitDx=0;exitDy=0;exitPerimeter=0;fontSize=18;fontStyle=0" parent="1" source="z2U0kG40jGPZimGbsGk0-151" target="z2U0kG40jGPZimGbsGk0-130" edge="1">
          <mxGeometry width="50" height="50" relative="1" as="geometry">
            <mxPoint x="1090" y="845" as="sourcePoint" />
            <mxPoint x="1140" y="795" as="targetPoint" />
          </mxGeometry>
        </mxCell>
        <mxCell id="z2U0kG40jGPZimGbsGk0-158" value="" style="endArrow=none;html=1;entryX=0;entryY=1;entryDx=0;entryDy=0;exitX=0.5;exitY=0;exitDx=0;exitDy=0;fontSize=18;fontStyle=0" parent="1" source="z2U0kG40jGPZimGbsGk0-149" target="z2U0kG40jGPZimGbsGk0-130" edge="1">
          <mxGeometry width="50" height="50" relative="1" as="geometry">
            <mxPoint x="1240" y="835" as="sourcePoint" />
            <mxPoint x="1290" y="785" as="targetPoint" />
          </mxGeometry>
        </mxCell>
        <mxCell id="z2U0kG40jGPZimGbsGk0-159" value="" style="endArrow=none;html=1;entryX=1;entryY=1;entryDx=0;entryDy=0;fontSize=18;fontStyle=0" parent="1" source="z2U0kG40jGPZimGbsGk0-153" target="z2U0kG40jGPZimGbsGk0-130" edge="1">
          <mxGeometry width="50" height="50" relative="1" as="geometry">
            <mxPoint x="1300" y="845" as="sourcePoint" />
            <mxPoint x="1350" y="795" as="targetPoint" />
          </mxGeometry>
        </mxCell>
        <mxCell id="z2U0kG40jGPZimGbsGk0-161" value="" style="endArrow=none;html=1;entryX=0.075;entryY=0.2;entryDx=0;entryDy=0;exitX=1;exitY=0.5;exitDx=0;exitDy=0;fontSize=18;fontStyle=0;entryPerimeter=0;" parent="1" source="z2U0kG40jGPZimGbsGk0-130" target="z2U0kG40jGPZimGbsGk0-150" edge="1">
          <mxGeometry width="50" height="50" relative="1" as="geometry">
            <mxPoint x="1380" y="785" as="sourcePoint" />
            <mxPoint x="1430" y="735" as="targetPoint" />
          </mxGeometry>
        </mxCell>
        <mxCell id="z2U0kG40jGPZimGbsGk0-169" value="出库数量" style="ellipse;whiteSpace=wrap;html=1;fontSize=18;fontStyle=0" parent="1" vertex="1">
          <mxGeometry x="221" y="578" width="110" height="50" as="geometry" />
        </mxCell>
        <mxCell id="z2U0kG40jGPZimGbsGk0-170" value="领用人" style="ellipse;whiteSpace=wrap;html=1;fontSize=18;fontStyle=0" parent="1" vertex="1">
          <mxGeometry x="479" y="608" width="100" height="50" as="geometry" />
        </mxCell>
        <mxCell id="z2U0kG40jGPZimGbsGk0-171" value="出库编号" style="ellipse;whiteSpace=wrap;html=1;fontStyle=5;fontSize=18;" parent="1" vertex="1">
          <mxGeometry x="134" y="532" width="110" height="50" as="geometry" />
        </mxCell>
        <mxCell id="z2U0kG40jGPZimGbsGk0-172" value="出库日期" style="ellipse;whiteSpace=wrap;html=1;fontSize=18;fontStyle=0" parent="1" vertex="1">
          <mxGeometry x="354" y="608" width="110" height="50" as="geometry" />
        </mxCell>
        <mxCell id="z2U0kG40jGPZimGbsGk0-173" value="" style="endArrow=none;html=1;fontSize=18;fontStyle=0;exitX=0.682;exitY=0;exitDx=0;exitDy=0;exitPerimeter=0;entryX=0;entryY=0.5;entryDx=0;entryDy=0;" parent="1" source="z2U0kG40jGPZimGbsGk0-171" target="z2U0kG40jGPZimGbsGk0-131" edge="1">
          <mxGeometry width="50" height="50" relative="1" as="geometry">
            <mxPoint x="184" y="586" as="sourcePoint" />
            <mxPoint x="432" y="423" as="targetPoint" />
          </mxGeometry>
        </mxCell>
        <mxCell id="z2U0kG40jGPZimGbsGk0-176" value="" style="endArrow=none;html=1;exitX=0.5;exitY=0;exitDx=0;exitDy=0;fontSize=18;fontStyle=0;entryX=0.2;entryY=0.7;entryDx=0;entryDy=0;entryPerimeter=0;" parent="1" source="z2U0kG40jGPZimGbsGk0-169" target="z2U0kG40jGPZimGbsGk0-131" edge="1">
          <mxGeometry width="50" height="50" relative="1" as="geometry">
            <mxPoint x="478" y="546" as="sourcePoint" />
            <mxPoint x="434" y="423" as="targetPoint" />
          </mxGeometry>
        </mxCell>
        <mxCell id="z2U0kG40jGPZimGbsGk0-177" value="" style="endArrow=none;html=1;entryX=0.331;entryY=0.817;entryDx=0;entryDy=0;exitX=0.427;exitY=0.04;exitDx=0;exitDy=0;exitPerimeter=0;fontSize=18;fontStyle=0;entryPerimeter=0;" parent="1" source="z2U0kG40jGPZimGbsGk0-172" target="z2U0kG40jGPZimGbsGk0-131" edge="1">
          <mxGeometry width="50" height="50" relative="1" as="geometry">
            <mxPoint x="643" y="604" as="sourcePoint" />
            <mxPoint x="598" y="506" as="targetPoint" />
          </mxGeometry>
        </mxCell>
        <mxCell id="z2U0kG40jGPZimGbsGk0-178" value="" style="endArrow=none;html=1;entryX=0.608;entryY=0.883;entryDx=0;entryDy=0;exitX=0.38;exitY=0.02;exitDx=0;exitDy=0;exitPerimeter=0;fontSize=18;fontStyle=0;entryPerimeter=0;" parent="1" source="z2U0kG40jGPZimGbsGk0-170" target="z2U0kG40jGPZimGbsGk0-131" edge="1">
          <mxGeometry width="50" height="50" relative="1" as="geometry">
            <mxPoint x="748" y="574" as="sourcePoint" />
            <mxPoint x="698" y="536" as="targetPoint" />
          </mxGeometry>
        </mxCell>
        <mxCell id="z2U0kG40jGPZimGbsGk0-194" value="账号" style="ellipse;whiteSpace=wrap;html=1;fontSize=18;fontStyle=0" parent="1" vertex="1">
          <mxGeometry x="26" y="236" width="120" height="50" as="geometry" />
        </mxCell>
        <mxCell id="z2U0kG40jGPZimGbsGk0-195" value="密码" style="ellipse;whiteSpace=wrap;html=1;fontSize=18;fontStyle=0" parent="1" vertex="1">
          <mxGeometry x="216" y="236" width="120" height="50" as="geometry" />
        </mxCell>
        <mxCell id="z2U0kG40jGPZimGbsGk0-196" value="用户信息后台" style="rounded=0;whiteSpace=wrap;html=1;fontSize=18;fontStyle=0" parent="1" vertex="1">
          <mxGeometry x="126" y="106" width="120" height="60" as="geometry" />
        </mxCell>
        <mxCell id="z2U0kG40jGPZimGbsGk0-197" value="" style="endArrow=none;html=1;fontSize=18;fontStyle=0" parent="1" source="z2U0kG40jGPZimGbsGk0-196" target="z2U0kG40jGPZimGbsGk0-194" edge="1">
          <mxGeometry width="50" height="50" relative="1" as="geometry">
            <mxPoint x="96" y="116" as="sourcePoint" />
            <mxPoint x="146" y="66" as="targetPoint" />
          </mxGeometry>
        </mxCell>
        <mxCell id="z2U0kG40jGPZimGbsGk0-198" value="" style="endArrow=none;html=1;entryX=0.5;entryY=0;entryDx=0;entryDy=0;fontSize=18;fontStyle=0;exitX=0.75;exitY=1;exitDx=0;exitDy=0;" parent="1" source="z2U0kG40jGPZimGbsGk0-196" target="z2U0kG40jGPZimGbsGk0-195" edge="1">
          <mxGeometry width="50" height="50" relative="1" as="geometry">
            <mxPoint x="196" y="106" as="sourcePoint" />
            <mxPoint x="346" y="76" as="targetPoint" />
          </mxGeometry>
        </mxCell>
        <mxCell id="E0FscniTOX1yQJH0actT-6" value="出库状态" style="ellipse;whiteSpace=wrap;html=1;fontSize=18;fontStyle=0" parent="1" vertex="1">
          <mxGeometry x="686" y="546" width="110" height="50" as="geometry" />
        </mxCell>
        <mxCell id="E0FscniTOX1yQJH0actT-7" value="物料单价" style="ellipse;whiteSpace=wrap;html=1;fontSize=18;fontStyle=0" parent="1" vertex="1">
          <mxGeometry x="2028" y="873" width="120" height="50" as="geometry" />
        </mxCell>
        <mxCell id="E0FscniTOX1yQJH0actT-9" value="" style="endArrow=none;html=1;entryX=0.5;entryY=0;entryDx=0;entryDy=0;exitX=1;exitY=0.5;exitDx=0;exitDy=0;" parent="1" source="z2U0kG40jGPZimGbsGk0-131" target="E0FscniTOX1yQJH0actT-6" edge="1">
          <mxGeometry width="50" height="50" relative="1" as="geometry">
            <mxPoint x="683" y="514" as="sourcePoint" />
            <mxPoint x="733" y="464" as="targetPoint" />
          </mxGeometry>
        </mxCell>
        <mxCell id="E0FscniTOX1yQJH0actT-13" value="" style="endArrow=none;html=1;entryX=0.35;entryY=1;entryDx=0;entryDy=0;entryPerimeter=0;exitX=0.5;exitY=0;exitDx=0;exitDy=0;" parent="1" source="E0FscniTOX1yQJH0actT-7" target="z2U0kG40jGPZimGbsGk0-129" edge="1">
          <mxGeometry width="50" height="50" relative="1" as="geometry">
            <mxPoint x="2244" y="992" as="sourcePoint" />
            <mxPoint x="2294" y="942" as="targetPoint" />
          </mxGeometry>
        </mxCell>
        <mxCell id="2AA7aEycTggt1Ptt7nJb-1" value="职位" style="ellipse;whiteSpace=wrap;html=1;fontSize=18;fontStyle=0" vertex="1" parent="1">
          <mxGeometry x="837" y="178" width="120" height="50" as="geometry" />
        </mxCell>
        <mxCell id="2AA7aEycTggt1Ptt7nJb-2" value="" style="endArrow=none;html=1;entryX=0.75;entryY=1;entryDx=0;entryDy=0;exitX=0.5;exitY=0;exitDx=0;exitDy=0;" edge="1" parent="1" source="2AA7aEycTggt1Ptt7nJb-1" target="z2U0kG40jGPZimGbsGk0-116">
          <mxGeometry width="50" height="50" relative="1" as="geometry">
            <mxPoint x="930" y="269" as="sourcePoint" />
            <mxPoint x="980" y="219" as="targetPoint" />
          </mxGeometry>
        </mxCell>
        <mxCell id="2AA7aEycTggt1Ptt7nJb-3" value="审批人" style="ellipse;whiteSpace=wrap;html=1;fontSize=18;fontStyle=0" vertex="1" parent="1">
          <mxGeometry x="586" y="582" width="100" height="50" as="geometry" />
        </mxCell>
        <mxCell id="2AA7aEycTggt1Ptt7nJb-4" value="" style="endArrow=none;html=1;entryX=1;entryY=1;entryDx=0;entryDy=0;exitX=0.5;exitY=0;exitDx=0;exitDy=0;" edge="1" parent="1" source="2AA7aEycTggt1Ptt7nJb-3" target="z2U0kG40jGPZimGbsGk0-131">
          <mxGeometry width="50" height="50" relative="1" as="geometry">
            <mxPoint x="581" y="577" as="sourcePoint" />
            <mxPoint x="631" y="527" as="targetPoint" />
          </mxGeometry>
        </mxCell>
      </root>
    </mxGraphModel>
  </diagram>
</mxfile>
